<svg viewBox="0 0 100 100" xmlns="http://www.w3.org/2000/svg" role="img" aria-label="MANDU MANTI logo">
  <circle cx="50" cy="50" r="50" fill="#FFC700"/>
  <!-- steam -->
  <g fill="none" stroke="#121212" stroke-width="3.2" stroke-linecap="round">
    <path d="M38 30c0-5 5-5 5-10s-5-5-5-10"/>
    <path d="M50 28c0-5 5-5 5-10s-5-5-5-10"/>
    <path d="M62 30c0-5 5-5 5-10s-5-5-5-10"/>
  </g>
  <!-- steamer basket -->
  <g fill="#121212">
    <rect x="22" y="44" width="56" height="13" rx="4"/>
    <rect x="25" y="58" width="50" height="11" rx="3.5"/>
    <rect x="28" y="70" width="44" height="9" rx="3"/>
  </g>
  <!-- dumplings on top -->
  <g fill="#121212">
    <circle cx="36" cy="42" r="6"/>
    <circle cx="50" cy="41" r="6.5"/>
    <circle cx="64" cy="42" r="6"/>
  </g>
  <g fill="#FFC700">
    <circle cx="36" cy="41" r="2"/>
    <circle cx="50" cy="40" r="2.2"/>
    <circle cx="64" cy="41" r="2"/>
  </g>
</svg>
